<svg width="100%" height="100" viewBox="0 0 25 35" fill="none" xmlns="http://www.w3.org/2000/svg">
  <path d="M20.887 14.6291L20.9987 14.6929L21.0943 14.6291L23.5345 13.2097L23.8375 13.0343L23.5345 12.8429L16.5331 8.48893L16.4852 8.45703H16.4214H15.002H14.9382L14.9063 8.48893L8.28766 12.3006L8.17602 12.3644V12.492V14.964V15.0916L8.28766 15.1554L19.0689 21.3594L15.7516 23.2892L10.5364 20.1473L10.4248 20.0835L10.3131 20.1473L7.77731 21.7741L7.49023 21.9495L7.77731 22.1249L14.9063 26.5427L14.9542 26.5746H15.0179H16.4533H16.5171L16.565 26.5427L23.1517 22.731L23.2633 22.6672V22.5396V20.0835V19.9559L23.1517 19.8921L12.3705 13.7041L15.7197 11.7743L20.887 14.6291Z" fill="black"></path>
  <path d="M21.0938 27.8664L20.9822 27.8026L20.8706 27.8664L15.7032 30.8648L4.1246 24.1983V10.8493L15.7032 4.16691L20.9025 6.9898L20.9982 7.03764L21.0938 6.9898L24.1081 5.379L24.459 5.20356L24.1081 5.01218L16.5007 0.865558L16.4688 0.849609H16.4209H15.0015H14.9377L14.9058 0.881506L1.68447 8.50491L1.63662 8.53681L1.60473 8.58465L0.887042 9.81269L0.871094 9.86054V9.92433V25.1552V25.219L0.902991 25.2668L1.62068 26.4949L1.65257 26.5427L1.70042 26.5746L14.9058 34.1661L14.9537 34.198H15.0175H16.4369H16.5007L16.5485 34.1661L23.9486 29.86L24.2676 29.6846L23.9486 29.5091L21.0938 27.8664Z" fill="black"></path>
</svg>
