<?xml version="1.0" encoding="UTF-8"?> <!-- Generator: Adobe Illustrator 24.2.1, SVG Export Plug-In . SVG Version: 6.00 Build 0) --> <svg xmlns="http://www.w3.org/2000/svg" xmlns:xlink="http://www.w3.org/1999/xlink" id="Layer_1" x="0px" y="0px" viewBox="0 0 172.5 147.3" style="enable-background:new 0 0 172.5 147.3;" xml:space="preserve"> <style type="text/css"> .st0{fill:#29C278;} </style> <g id="MixBytes-logo-Copy_1_" transform="translate(120.000000, 406.000000)"> <g> <polygon id="Shape_10_" class="st0" points="-94,-386.1 -93.7,-392.5 -94.1,-392.5 -100.7,-381.7 -102.1,-381.7 -108.9,-392.5 -109.3,-392.5 -108.9,-386.8 -108.9,-364.1 -116.5,-364.1 -116.5,-405.3 -108.4,-405.3 -101.3,-394 -101.1,-394 -94.1,-405.3 -86,-405.3 -86,-364.1 -94,-364.1 "></polygon> <path id="Shape_9_" class="st0" d="M-80.1-370.6h10.4v-16.5h-10.4v-6.5h18v22.9h10.9v6.5h-29L-80.1-370.6L-80.1-370.6z M-71.2-401.6c0-1.2,0.4-2.3,1.3-3.1c0.9-0.8,2.1-1.3,3.7-1.3s2.9,0.4,4,1.3c0.9,0.8,1.5,1.9,1.5,3.1s-0.5,2.3-1.5,3.1 c-0.9,0.8-2.3,1.2-4,1.2c-1.6,0-2.8-0.4-3.7-1.2C-70.6-399.3-71.2-400.4-71.2-401.6z"></path> <polygon id="Shape_8_" class="st0" points="-35.8,-379.3 -46.1,-393.6 -36.9,-393.6 -30.2,-383.7 -23.3,-393.6 -15,-393.6 -25,-379.5 -14.5,-364.1 -23.3,-364.1 -30.7,-374.9 -38.4,-364.1 -46.8,-364.1 "></polygon> </g> <path id="Shape_7_" class="st0" d="M-88.9-346.8c0,1.1-0.1,2-0.4,3.1s-0.7,2-1.2,2.8s-1.3,1.6-2.3,2.3s-2.1,1.1-3.5,1.5v0.4 c1.2,0.1,2.3,0.5,3.3,1.1c1.1,0.5,2,1.1,2.8,2c0.8,0.8,1.5,1.9,1.9,3.1s0.7,2.5,0.7,4.1c0,2.1-0.4,4-1.3,5.5 c-0.9,1.6-2.1,2.8-3.6,3.7c-1.5,0.9-3.2,1.7-5.2,2.1c-1.9,0.5-3.9,0.7-6,0.7c-0.7,0-1.5,0-2.5,0s-2.1,0-3.3-0.1 c-1.2,0-2.4-0.1-3.6-0.3c-1.2-0.1-2.4-0.3-3.3-0.5V-356c0.8-0.1,1.6-0.3,2.5-0.4s2-0.3,3.1-0.3c1.1-0.1,2.3-0.1,3.3-0.1 c1.2,0,2.3,0,3.5,0c1.9,0,3.7,0.1,5.6,0.4s3.5,0.8,4.9,1.6c1.5,0.8,2.5,1.7,3.5,3.1C-89.3-350.5-88.9-348.8-88.9-346.8z M-106.4-339c0.5,0,1.2,0,2,0s1.3-0.1,1.9-0.1c1.5-0.5,2.8-1.2,4-2.1c1.1-0.9,1.6-2.1,1.6-3.7c0-1.1-0.3-1.9-0.7-2.5 s-0.9-1.2-1.6-1.6s-1.5-0.7-2.3-0.8c-0.8-0.1-1.7-0.3-2.7-0.3c-1.1,0-2,0-2.9,0s-1.6,0.1-2,0.1v10.9L-106.4-339L-106.4-339z M-103.7-321.3c0.9,0,2-0.1,2.8-0.4c0.9-0.3,1.7-0.5,2.4-1.1c0.7-0.5,1.3-1.1,1.7-1.9s0.7-1.6,0.7-2.7c0-1.3-0.3-2.3-0.8-3.1 c-0.5-0.8-1.2-1.3-2-1.7c-0.8-0.4-1.7-0.7-2.8-0.8c-1.1-0.1-2-0.1-3.1-0.1h-4.3v11.2c0.1,0.1,0.5,0.1,0.9,0.1s0.9,0,1.3,0.1 c0.5,0,1.1,0,1.5,0C-104.7-321.3-104.1-321.3-103.7-321.3z"></path> <path id="Shape_6_" class="st0" d="M-67.3-323.4h2.3l5.7-21.2h7.9l-8.4,26.5c-0.8,2.1-1.5,4.3-2.1,6c-0.7,1.9-1.6,3.5-2.5,4.8 s-2,2.4-3.3,3.1s-2.8,1.1-4.7,1.1c-0.9,0-1.7-0.1-2.5-0.4s-1.6-0.5-2.3-0.8c-0.7-0.4-1.2-0.7-1.7-1.1s-0.9-0.7-1.2-1.1l4-5.2 c0.5,0.4,1.1,0.8,1.9,1.2c0.7,0.4,1.3,0.5,2,0.5c1.2,0,2.1-0.4,2.8-1.2s1.3-2.1,2-4h-4.1L-84-344.6h8.3L-67.3-323.4z"></path> <path id="Shape_5_" class="st0" d="M-42.8-338.1h-5.9v-6.5h5.9v-6.7l7.6-2.1v8.9h15.5v6.5h-15.5v8.4c0,3.1,0.5,5.2,1.7,6.5 s2.7,2,4.8,2c1.1,0,2-0.1,2.9-0.4c0.8-0.3,1.6-0.5,2.3-0.9c0.7-0.4,1.3-0.8,1.9-1.3c0.5-0.5,1.1-0.9,1.6-1.3l3.5,5.3 c-0.7,0.8-1.5,1.5-2.5,2.1s-2.1,1.2-3.2,1.7c-1.2,0.5-2.4,0.9-3.6,1.2c-1.2,0.3-2.5,0.4-3.7,0.4c-4.4,0-7.7-1.2-9.9-3.7 c-2.3-2.4-3.3-6.4-3.3-11.7L-42.8-338.1L-42.8-338.1L-42.8-338.1z"></path> <path id="Shape_4_" class="st0" d="M17.1-318.2c-0.5,0.5-1.2,0.9-2,1.3s-1.7,0.9-2.8,1.3s-2.3,0.7-3.6,0.9 c-1.3,0.3-2.7,0.4-4.1,0.4c-2.5,0-4.8-0.4-6.8-1.1s-3.6-1.7-5.1-3.1c-1.3-1.3-2.4-2.9-3.2-4.9c-0.8-1.9-1.1-4-1.1-6.5 s0.4-4.8,1.2-6.8s2-3.6,3.3-4.8c1.5-1.3,3.1-2.3,5.1-2.9c1.9-0.7,4-0.9,6.3-0.9c1.5,0,3.1,0.1,4.7,0.5s3.1,1.1,4.4,2 s2.4,2.3,3.2,3.9c0.8,1.6,1.3,3.6,1.3,6.1c0,1.7-0.1,3.5-0.5,5.5H-3.7c0,1.2,0.3,2.3,0.8,3.2c0.5,0.8,1.2,1.6,2,2.1 s1.7,0.9,2.8,1.2c1.1,0.3,2.1,0.4,3.3,0.4c2.4,0,4.3-0.3,5.7-0.8c1.5-0.5,2.8-1.2,3.7-2L17.1-318.2z M4.5-339.3 c-1.1,0-2,0.1-2.9,0.4s-1.7,0.7-2.4,1.2s-1.3,1.2-1.7,2c-0.5,0.8-0.8,1.7-0.8,2.7H11c0-2-0.5-3.5-1.6-4.7 C8.3-338.8,6.6-339.3,4.5-339.3z"></path> <path id="Shape_3_" class="st0" d="M44.8-323.3c0-0.8-0.5-1.5-1.5-1.9c-0.9-0.5-2.1-0.9-3.6-1.3s-2.9-0.8-4.7-1.2 c-1.7-0.4-3.2-0.9-4.7-1.7c-1.5-0.7-2.7-1.6-3.6-2.8c-0.9-1.1-1.5-2.5-1.5-4.3c0-1.5,0.3-2.7,0.9-3.9c0.7-1.1,1.5-2,2.7-2.8 c1.1-0.8,2.4-1.3,4-1.7c1.6-0.4,3.2-0.5,5.1-0.5c1.9,0,3.6,0.1,5.1,0.4s2.7,0.7,3.7,1.1c1.1,0.4,2,0.8,2.8,1.3s1.5,0.9,2,1.3 l-3.2,5.2c-0.5-0.4-1.3-0.7-2-1.1c-0.8-0.4-1.6-0.7-2.4-1.1c-0.8-0.3-1.7-0.5-2.7-0.8c-0.9-0.1-1.9-0.3-2.8-0.3 c-1.6,0-2.9,0.3-4,0.7c-1.1,0.4-1.5,1.1-1.5,2c0,0.7,0.5,1.3,1.5,1.7c0.9,0.4,2.1,0.8,3.6,1.2s2.9,0.8,4.7,1.2 c1.7,0.4,3.2,0.9,4.7,1.7c1.5,0.7,2.7,1.6,3.6,2.7c0.9,1.1,1.5,2.5,1.5,4.3c0,2.9-1.1,5.3-3.3,7.1c-2.1,1.7-5.5,2.5-9.7,2.5 c-3.3,0-6.3-0.5-8.8-1.5c-2.4-1.1-4.4-2.1-5.9-3.5l3.6-5.6c0.5,0.4,1.2,0.9,2,1.5s1.7,1.1,2.8,1.5s2.1,0.8,3.3,1.1 c1.2,0.3,2.4,0.4,3.6,0.4c1.2,0,2.4-0.3,3.2-0.7C44.4-321.6,44.8-322.2,44.8-323.3z"></path> <path id="Shape_2_" class="st0" d="M-106.1-305.5c-2.3,4.1-3.9,8-5.1,11.9c-1.1,3.9-1.6,7.6-1.6,11.5c0,3.7,0.5,7.6,1.6,11.5 s2.8,7.9,5.1,12h-5.9c-2.7-4-4.7-7.9-6-11.7c-1.3-3.9-2-7.7-2-11.7s0.7-7.9,2-11.7c1.3-3.9,3.3-7.7,6-11.6L-106.1-305.5 L-106.1-305.5L-106.1-305.5z"></path> <path id="Shape_1_" class="st0" d="M-90.2-305.5h5.9c2.7,3.9,4.7,7.7,6,11.6s2,7.7,2,11.7s-0.7,7.9-2,11.7c-1.3,3.9-3.3,7.7-6,11.7 h-5.9c2.3-4.1,3.9-8.1,5.1-12c1.1-3.9,1.6-7.7,1.6-11.5c0-3.9-0.5-7.6-1.6-11.5C-86.4-297.4-88-301.4-90.2-305.5z"></path> </g> </svg>
