<?xml version="1.0" encoding="utf-8"?>
<!-- Generator: Adobe Illustrator 25.0.1, SVG Export Plug-In . SVG Version: 6.00 Build 0)  -->
<svg version="1.0" id="katman_1" xmlns="http://www.w3.org/2000/svg" xmlns:xlink="http://www.w3.org/1999/xlink" x="0px" y="0px"
	 viewBox="0 0 600 400" style="enable-background:new 0 0 600 400;" xml:space="preserve">
<style type="text/css">
	.st0{fill:#1C1C1B;}
</style>
<desc>Created with Sketch.</desc>
<path class="st0" d="M277.2,253c1.3,0.6,2.3,1,3.3,1.5c5.9,3.1,9.1,8,9.1,14.6c0.1,15.5-6.1,27.5-20.4,34.6c-4.3,2.1-9,3.1-13.8,3.4
	c-0.8,0-1.6-0.1-2.3-0.5c-10.8-5.9-21.6-11.8-32.5-17.7c-1-0.5-1.1-1-0.8-2c8.9-27.7,17.7-55.3,26.6-83c0.3-0.9,0.6-1.3,1.7-1.3
	c10.8,0.1,21.5-0.2,32.3,0.2c3.1,0.1,6.2,0.8,9.2,1.9c8.9,3.3,13.4,10.6,12.6,20.6c-1.2,14.6-9,23.5-24.2,27.5
	C277.7,252.8,277.6,252.9,277.2,253z M246.7,291.3C246.7,291.3,246.7,291.3,246.7,291.3c1.9-0.1,3.8,0,5.8-0.1
	c4.3-0.2,7.9-1.7,10.6-5.2c3.1-4.2,5.3-8.9,6.2-14.1c1-5.5-1.4-9.2-6.9-10.5c-4.1-1-8.2-0.7-12.3-0.8c-0.7,0-0.8,0.4-1,0.9
	c-3.1,9.5-6.2,19.1-9.3,28.7c-0.3,0.8-0.1,1.2,0.8,1.1C242.6,291.3,244.7,291.3,246.7,291.3z M260.2,245.6c0.9,0,1.7,0,2.6,0
	c11.8-0.4,18.8-7.3,18.6-18.7c-0.1-4.2-2-6.6-6-7.6c-4-1-8-0.7-12-0.7c-0.7,0-0.8,0.5-1,1c-2.7,8.4-5.4,16.7-8.1,25
	c-0.3,1,0,1,0.8,1C256.8,245.6,258.5,245.6,260.2,245.6z"/>
<path class="st0" d="M221.4,145.5c1.8,0.6,3.4,1,4.9,1.6c5.9,2.3,8.6,6.2,8.5,12.6c-0.1,5.8-1.9,11.2-3.6,16.7
	c-1.9,6.1-3.9,12.1-3.8,18.5c0,0.7-0.3,0.8-0.9,0.8c-7,0-14,0-21,0c-1.2,0-1-0.6-0.9-1.3c0.5-6.4,2.3-12.5,4.1-18.5
	c1.3-4.5,2.8-8.9,3.5-13.5c1-6.2-0.8-8.5-7-9.1c-3.1-0.3-6.3-0.1-9.4,0c-0.9,0-1.3,0.4-1.5,1.3c-1.1,3.6-2.3,7.1-3.3,10.6
	c-0.3,1-0.7,1.4-1.8,1.1c-5.9-1.6-11.8-3.2-17.7-4.8c-1.1-0.3-1.2-0.7-0.9-1.7c7-22.5,14.1-44.9,21.1-67.4c0.3-1,0.8-1.3,1.8-1.3
	c9.1,0,18.2,0,27.3,0.1c5.6,0.1,11,1,16.1,3.4c7.5,3.5,11.3,9.4,11.7,17.6c0.3,5.5-0.4,10.9-2.6,16.1
	C241.2,138.7,232.9,144.1,221.4,145.5z M199.7,136.9c3.8,0,7.5-0.1,11.1,0c3.7,0.1,6.7-1.3,9.2-3.9c4.4-4.7,6.5-10.4,7-16.7
	c0.3-4.8-2-7.5-6.7-8.4c-3.6-0.6-7.2-0.2-10.8-0.3c-1,0-0.9,0.7-1.1,1.2c-1.3,4.1-2.5,8.1-3.7,12.1
	C203,126.2,201.4,131.5,199.7,136.9z"/>
<path class="st0" d="M276.6,157c7,0,13.6,0,20.2,0c1.3,0,1.2-0.7,1.2-1.6c0-5,0.1-10,0.4-15c0.4-8.6,1.2-17.1,2.1-25.6
	c0.1-0.9,0.3-1.1,1.2-0.8c5.7,1.7,11.3,3.5,17,5.1c0.9,0.3,1,0.8,1,1.6c-0.1,5.5-0.2,11.1-0.4,16.6c-0.5,19.1-0.9,38.2-1.3,57.3
	c0,1.3-0.5,1.4-1.5,1.4c-6.4,0-12.8,0-19.2,0c-1.2,0-1.5-0.3-1.5-1.5c0.3-6.4,0.5-12.8,0.8-19.2c0.1-1.3-0.2-1.8-1.6-1.7
	c-8.4,0.1-16.8,0.1-25.2,0c-1.1,0-1.6,0.3-2.1,1.3c-3.5,6.6-7,13.3-10.5,19.9c-0.4,0.7-0.7,1.2-1.6,1.2c-7.2,0-14.4,0-21.7,0
	c-0.4-0.6,0.2-1,0.4-1.4c16-28.3,31.9-56.7,47.8-85c0.6-1,1-1.3,2.1-0.9c4.2,1.3,8.3,2.6,12.5,3.8c1.2,0.3,1.3,0.7,0.8,1.9
	c-6.2,13.8-12.9,27.3-20,40.7C277.3,155.6,277,156.2,276.6,157z"/>
<path class="st0" d="M306.7,261.5c0.1,0-0.2,0-0.5,0c-1.1,0.2-1.3-0.1-0.9-1.2c2-5.8,3.8-11.7,5.7-17.6
	c12.6-37.5,23.6-75.4,34.9-113.3c0.5-1.5,0.9-1.7,2.4-1.3c6.2,2,12.5,3.8,18.7,5.6c1.4,0.4,0.9,1.1,0.7,1.9
	c-8.6,27-17.1,54-25.7,81.1c-4.4,13.8-8.8,27.6-13.1,41.4c-0.3,1.1-0.8,1.7-2.1,1.8C320.2,260.5,313.6,261,306.7,261.5z"/>
<path class="st0" d="M137.2,108.7c-8.5,0-16.9,0-25.5,0c0.7-2.3,1.4-4.5,2.1-6.7c0.9-3,2-6.1,2.8-9.2c0.3-1.2,0.9-1.5,2.1-1.5
	c12.4,0,24.8,0,37.2,0c9.8,0,19.6,0,29.4-0.1c1.3,0,1.7,0.1,1.3,1.6c-1.6,4.8-3.1,9.6-4.5,14.4c-0.3,1.1-0.8,1.4-1.9,1.4
	c-6.4-0.1-12.7,0-19.1,0c-1.2,0-1.8,0.3-2.1,1.5c-4.4,14.2-8.8,28.4-13.2,42.6c-0.3,1.2-0.7,1.7-2.1,1.3c-5.8-1.6-11.5-3.2-17.4-4.7
	c-1.4-0.4-1.5-0.8-1.2-2.1c4-12.3,7.8-24.7,11.7-37.1C136.9,109.8,137,109.3,137.2,108.7z"/>
<path class="st0" d="M436.2,258.6c2-0.2,3.9-0.4,5.8-0.5c6.3-0.4,12.5-0.7,18.8-1.2c1.2-0.1,2,0.3,2.9,1.2c6,6,7.7,13.3,6.1,21.3
	c-1.5,7.7-4.8,14.6-9.4,20.8c-4.4,5.9-10.6,9.3-17.9,10.6c-8.8,1.6-17.6,1.9-26.3-0.5c-7.5-2-13-6.2-14.9-14.1
	c-1-4.2-0.6-8.5,0.4-12.6c0.5-2.1,1.3-4.1,1.9-6.2c0.2-0.7,0.6-1.1,1.4-1.1c7.2,0,14.3,0,21.7,0c-0.9,2.1-1.8,4-2.2,6
	c-0.5,2.2-0.9,4.3-0.6,6.5c0.7,4.6,4.1,7.3,8.8,6.7c8-0.9,15.8-9.1,16-17c0.1-4.8-1.8-9.1-4.8-12.8c-1.9-2.3-4.1-4.3-6.5-6
	C437,259.5,436.4,259.3,436.2,258.6z"/>
<path class="st0" d="M427.3,202.9c-0.9,2.7-1.7,5.5-2.6,8.2c-0.8,2.6-1.7,5.1-2.4,7.7c-0.3,1.2-0.9,1.4-2,1.4
	c-6.4,0-12.7,0-19.1-0.1c-1.3,0-1.8,0.4-2.2,1.6c-3.5,11.2-7.1,22.4-10.5,33.6c-0.4,1.4-1,1.9-2.5,2c-6.3,0.3-12.6,0.8-18.8,1.3
	c-1.5,0.1-1.6-0.3-1.2-1.6c3.7-11.6,7.2-23.3,10.9-34.9c0.5-1.4,0.4-2-1.4-1.9c-7.3,0.1-14.7,0-22,0.1c-1.5,0-1.6-0.3-1.2-1.7
	c1.6-4.8,3.1-9.6,4.6-14.4c0.2-0.8,0.6-1.2,1.5-1.2c22.7,0,45.3,0,68,0C426.8,202.7,426.9,202.8,427.3,202.9z"/>
<path class="st0" d="M458.8,251.8c-4.7,0.3-9,0.6-13.3,0.9c-4.4,0.3-8.7,0.5-13.1,0.9c-1,0.1-1.8-0.1-2.6-0.7c-4.3-3-7-7.3-7.2-12.4
	c-0.5-10.2,2.1-19.6,9-27.5c4.8-5.6,11-8.9,18.2-10.4c8.4-1.7,16.8-1.4,24.9,1.5c6.4,2.3,11.1,6.3,12.8,13.2c0.6,2.6,0.7,5.3,0.2,8
	c-0.6,3.1-1.5,6.2-2.6,9.2c-0.3,0.8-0.7,1.1-1.6,1.1c-6.3,0-12.6,0-18.9,0c-1.2,0-1.2-0.3-0.9-1.3c0.7-2.1,1.6-4.2,2.1-6.5
	c0.3-1.6,0.4-3.3,0.2-4.9c-0.4-2.3-1.6-3.9-3.9-4.7c-5.3-1.7-10.3-0.1-13.2,4.7c-3.5,5.9-4.3,11.9,0.3,17.9
	C451.9,244.8,455,248.3,458.8,251.8z"/>
<path class="st0" d="M387.7,195.9c-8.2,0-16.3,0-24.5,0c-1.5,0-1.5-0.4-1.2-1.6c5.8-18.3,11.6-36.7,17.4-55c0.4-1.2,0.8-1.5,2-1.1
	c5.8,1.9,11.6,3.6,17.5,5.3c1.3,0.4,1.6,0.8,1.2,2.1c-3.4,10.5-6.7,21-10.1,31.6c-0.5,1.5-0.2,1.8,1.4,1.7c8.7-0.1,17.4,0,26.1-0.1
	c1.6,0,1.8,0.4,1.3,1.9c-1.6,4.6-3.1,9.3-4.6,13.9c-0.3,1-0.8,1.3-1.8,1.3C404.2,195.9,396,195.9,387.7,195.9
	C387.7,195.9,387.7,195.9,387.7,195.9z"/>
<path class="st0" d="M384.3,262.7c1.8-0.4,2.1,0.1,1.7,1.4c-2.8,8.9-5.6,17.8-8.4,26.8c-0.2,0.8-0.7,1.1-1.4,1.4
	c-7.2,2.1-14.5,4.3-21.7,6.4c-0.5,0.1-0.9,0.5-1.3,0.1c-0.5-0.4,0-0.9,0.1-1.3c3.4-10.7,6.8-21.4,10.1-32.1c0.2-0.8,0.5-1.4,1.6-1.5
	C371.6,263.6,378.2,263.1,384.3,262.7z"/>
<path class="st0" d="M411,111.7c-0.6,1.8-1.1,3.6-1.6,5.3c-2.1,6.8-4.3,13.6-6.3,20.5c-0.3,1-0.7,1.4-1.8,1c-6-1.9-12-3.7-18-5.5
	c-1-0.3-1.2-0.7-0.8-1.7c2.7-8.5,5.3-17,7.9-25.5c0.6-1.9,1.2-3.8,1.7-5.7c0.2-0.9,0.6-1.1,1.4-0.6c5.6,3.7,11.2,7.3,16.8,11
	C410.6,110.9,411.1,111.1,411,111.7z"/>
<path class="st0" d="M169.9,196.8c-3.2,0-6.4,0-9.6,0c-1.3,0-1.6-0.3-1.2-1.6c3.1-9.3,6.1-18.5,9.1-27.8c0.3-0.9,0.7-1,1.5-0.8
	c6.1,1.6,12.1,3.3,18.2,4.9c0.9,0.2,0.9,0.6,0.7,1.3c-2.4,7.6-4.9,15.3-7.2,22.9c-0.3,1-0.8,1.1-1.6,1.1
	C176.4,196.9,173.2,196.9,169.9,196.8C169.9,196.9,169.9,196.9,169.9,196.8z"/>
<path class="st0" d="M320.8,96.5c0,9.9-0.3,16-0.3,16c0,1.4-0.4,1.5-1.6,1.2c-10.8-3.3-21.7-6.6-32.5-9.8c-1.4-0.4-1.6-0.9-0.8-2.1
	c0.8-1.2,1.4-2.5,2.1-3.8c1-1.9,2.2-2.8,4.3-3.2c9.2-1.7,18.3-3.6,27.5-5.5c1.3-0.2,1.5-0.1,1.5,1.2c0,1.8,0,5.2,0,5.2
	C320.8,94.6,320.8,96.2,320.8,96.5z"/>
<path class="st0" d="M133.8,190.9c-4.6-4.8-8.8-9.6-13.5-14c-2.7-2.6-3-4.8-1.8-8.1c1.7-4.3,2.8-8.8,4.1-13.3c0.2-0.8,0.6-1,1.5-0.8
	c6.1,1.7,12.1,3.3,18.2,4.9c0.8,0.2,1.3,0.3,0.9,1.3c-3.1,9.8-6.1,19.5-9.1,29.3C134.1,190.4,134,190.6,133.8,190.9z"/>
<path class="st0" d="M199.1,235.8c-1.3-0.1-2.6-0.2-3.8-0.4c-5-1-7.1-3.9-5.9-8.8c1.4-5.7,3-11.5,5.6-16.8c3-6.4,11.7-8.7,17.8-5
	c2.4,1.5,3.4,3.7,2.9,6.4c-1.2,6.5-3.3,12.8-6,18.9C207.9,234.2,204.7,235.8,199.1,235.8z M198.9,230.9c2.6-0.1,4-1.2,4.8-3.1
	c2.1-5.3,3.8-10.7,5.2-16.2c0.5-2.1-0.9-3.6-3.1-3.6c-2.3,0-3.8,1.3-4.7,3.4c-1.9,4.8-3.5,9.7-4.9,14.7c-0.1,0.5-0.2,1-0.2,1.6
	C196.1,229.8,197.3,230.9,198.9,230.9z"/>
<path class="st0" d="M247.5,310c-6.8,1-13.4,2-20,2.9c-5.3,0.8-10.6,1.4-15.9,2.3c-1.6,0.2-1.4-0.2-1-1.3c2.2-6.4,4.3-12.9,6.4-19.4
	c0.3-0.8,0.5-1.3,1.5-0.7c9.5,5.3,19.1,10.5,28.6,15.8C247.3,309.6,247.3,309.8,247.5,310z"/>
<path class="st0" d="M212.4,235.3c2-6.6,4-13,6-19.4c1.2-3.7,2.3-7.4,3.4-11.2c0.3-0.9,0.6-1.4,1.7-1.4c4.6,0.1,9.2,0.1,13.8,0
	c1.1,0,1.4,0.1,1,1.3c-1.2,3.9-1.2,3.9-5.4,3.9c-1.5,0-2.9,0-4.4,0c-0.7,0-1.2,0.1-1.4,0.9c-0.5,1.8-1.1,3.5-1.7,5.3
	c-0.1,0.4-0.2,0.9-0.4,1.5c2.7,0,5.2,0,7.7,0c1.1,0,1.3,0.3,1,1.3c-1.1,4-1.1,4-5.2,4c-1.7,0-3.8-0.7-4.9,0.3c-1,0.9-1.1,3-1.6,4.5
	c-0.8,2.6-1.6,5.1-2.4,7.7c-0.3,0.9-0.6,1.3-1.6,1.3C216.3,235.3,214.4,235.3,212.4,235.3z"/>
</svg>
