<?xml version="1.0" encoding="utf-8"?>
<!-- Generator: Adobe Illustrator 26.5.0, SVG Export Plug-In . SVG Version: 6.00 Build 0)  -->
<svg version="1.1" id="Layer_1" xmlns="http://www.w3.org/2000/svg" xmlns:xlink="http://www.w3.org/1999/xlink" x="0px" y="0px"
	 viewBox="0 0 835.8 334.9" style="enable-background:new 0 0 835.8 334.9;" xml:space="preserve">
<style type="text/css">
	.st0{fill:#231F20;}
</style>
<path class="st0" d="M208.3,159.5L316,23.2l-49.8,0.1h-13.9c-13.2,0.2-24.6,6.4-34.2,18.6l-53.5,68.1L111.1,42
	c-9.8-12.4-21.2-18.5-34.2-18.5l-42,0c-7.2,0-10.7,3-10.7,9c0,3,1.4,6.2,4.1,9.6l92.9,117.5L22.9,285.4c-2.7,3.5-4.1,6.7-4.1,9.6
	c0.8,5.9,4.5,8.8,11,8.8h41.6c13,0,24.4-6.1,34-18.4l59.5-76.1l59.7,75.9c9.7,12.2,21,18.3,34,18.3l63.1-0.1L208.3,159.5z
	 M755,302.9l43.4-55.3l-106.7,0.1c-35,0-58.9-6.3-71.5-19.1s-19-34.6-19-65.5c-0.1-30.9,6.2-52.8,18.9-65.7s36.5-19.3,71.5-19.3
	L803.8,78L760,22.7l-70.7,0.1c-56.5,0.1-97.6,11.4-123.3,34c-11.7,10.3-20.6,23.4-27,39.1c7.1,19.1,10.6,41.5,10.7,67.2
	s-3.5,48.1-10.5,67.2c6.4,15.6,15.3,28.7,27.1,39c25.8,22.5,66.9,33.7,123.4,33.7L755,302.9z M532.6,115.4
	c-1.6-6.6-3.8-13.1-6.4-19.5c-6.4-15.6-15.3-28.8-27.1-39C473.4,34.3,432.2,23,375.7,23.1L331,23.2l-43.7,55.3l86.3-0.1
	c35,0,58.9,6.3,71.5,19.2c12.7,12.8,19,34.7,19,65.6c0,30.9-6.2,52.8-18.9,65.6S408.8,248,373.8,248l-80.7,0.1l43.5,55.2H376
	c56.5-0.1,97.6-11.4,123.4-33.9c11.7-10.3,20.6-23.4,27-39c2.6-6.3,4.7-12.8,6.3-19.5c3.6-15.7,5.3-31.7,5.2-47.7
	C538,147.1,536.2,131.1,532.6,115.4z"/>
<path class="st0" d="M223.8,159.7l56,71l-0.2-142L223.8,159.7z"/>
</svg>
